<svg width="20" height="20" viewBox="0 0 20 20" fill="none" xmlns="http://www.w3.org/2000/svg">
  <path d="M9.99999 18.9583C5.05832 18.9583 1.04166 14.9417 1.04166 9.99999C1.04166 5.05832 5.05832 1.04166 9.99999 1.04166C14.9417 1.04166 18.9583 5.05832 18.9583 9.99999C18.9583 14.9417 14.9417 18.9583 9.99999 18.9583ZM9.99999 2.29166C5.74999 2.29166 2.29166 5.74999 2.29166 9.99999C2.29166 14.25 5.74999 17.7083 9.99999 17.7083C14.25 17.7083 17.7083 14.25 17.7083 9.99999C17.7083 5.74999 14.25 2.29166 9.99999 2.29166Z" fill="white"/>
  <path d="M13.3333 10.625H6.66666C6.32499 10.625 6.04166 10.3417 6.04166 10C6.04166 9.65833 6.32499 9.375 6.66666 9.375H13.3333C13.675 9.375 13.9583 9.65833 13.9583 10C13.9583 10.3417 13.675 10.625 13.3333 10.625Z" fill="white"/>
  <path d="M10 13.9583C9.65833 13.9583 9.375 13.675 9.375 13.3333V6.66666C9.375 6.32499 9.65833 6.04166 10 6.04166C10.3417 6.04166 10.625 6.32499 10.625 6.66666V13.3333C10.625 13.675 10.3417 13.9583 10 13.9583Z" fill="white"/>
  </svg>