<svg width="32" height="32" viewBox="0 0 32 32" fill="none" xmlns="http://www.w3.org/2000/svg">
  <path d="M23.2667 30.3333C21.76 30.3333 20.1733 29.9733 18.5333 29.28C16.9333 28.6 15.32 27.6667 13.7467 26.5333C12.1867 25.3867 10.68 24.1067 9.25332 22.7067C7.83999 21.28 6.55999 19.7733 5.42666 18.2267C4.27999 16.6267 3.35999 15.0267 2.70666 13.48C2.01332 11.8267 1.66666 10.2267 1.66666 8.72C1.66666 7.68 1.85332 6.69333 2.21332 5.77333C2.58666 4.82667 3.18666 3.94667 3.99999 3.18667C5.02666 2.17333 6.19999 1.66667 7.45332 1.66667C7.97332 1.66667 8.50666 1.78667 8.95999 2C9.47999 2.24 9.91999 2.6 10.24 3.08L13.3333 7.44C13.6133 7.82667 13.8267 8.2 13.9733 8.57333C14.1467 8.97333 14.24 9.37333 14.24 9.76C14.24 10.2667 14.0933 10.76 13.8133 11.2267C13.6133 11.5867 13.3067 11.9733 12.92 12.36L12.0133 13.3067C12.0267 13.3467 12.04 13.3733 12.0533 13.4C12.2133 13.68 12.5333 14.16 13.1467 14.88C13.8 15.6267 14.4133 16.3067 15.0267 16.9333C15.8133 17.7067 16.4667 18.32 17.08 18.8267C17.84 19.4667 18.3333 19.7867 18.6267 19.9333L18.6 20L19.5733 19.04C19.9867 18.6267 20.3867 18.32 20.7733 18.12C21.5067 17.6667 22.44 17.5867 23.3733 17.9733C23.72 18.12 24.0933 18.32 24.4933 18.6L28.92 21.7467C29.4133 22.08 29.7733 22.5067 29.9867 23.0133C30.1867 23.52 30.28 23.9867 30.28 24.4533C30.28 25.0933 30.1333 25.7333 29.8533 26.3333C29.5733 26.9333 29.2267 27.4533 28.7867 27.9333C28.0267 28.7733 27.2 29.3733 26.24 29.76C25.32 30.1333 24.32 30.3333 23.2667 30.3333ZM7.45332 3.66667C6.71999 3.66667 6.03999 3.98667 5.38666 4.62667C4.77332 5.2 4.34666 5.82667 4.07999 6.50667C3.79999 7.2 3.66666 7.93333 3.66666 8.72C3.66666 9.96 3.95999 11.3067 4.54666 12.6933C5.14666 14.1067 5.98666 15.5733 7.05332 17.04C8.11999 18.5067 9.33332 19.9333 10.6667 21.28C12 22.6 13.44 23.8267 14.92 24.9067C16.36 25.96 17.84 26.8133 19.3067 27.4267C21.5867 28.4 23.72 28.6267 25.48 27.8933C26.16 27.6133 26.76 27.1867 27.3067 26.5733C27.6133 26.24 27.8533 25.88 28.0533 25.4533C28.2133 25.12 28.2933 24.7733 28.2933 24.4267C28.2933 24.2133 28.2533 24 28.1467 23.76C28.1067 23.68 28.0267 23.5333 27.7733 23.36L23.3467 20.2133C23.08 20.0267 22.84 19.8933 22.6133 19.8C22.32 19.68 22.2 19.56 21.7467 19.84C21.48 19.9733 21.24 20.1733 20.9733 20.44L19.96 21.44C19.44 21.9467 18.64 22.0667 18.0267 21.84L17.6667 21.68C17.12 21.3867 16.48 20.9333 15.7733 20.3333C15.1333 19.7867 14.44 19.1467 13.6 18.32C12.9467 17.6533 12.2933 16.9467 11.6133 16.16C10.9867 15.4267 10.5333 14.8 10.2533 14.28L10.0933 13.88C10.0133 13.5733 9.98666 13.4 9.98666 13.2133C9.98666 12.7333 10.16 12.3067 10.4933 11.9733L11.4933 10.9333C11.76 10.6667 11.96 10.4133 12.0933 10.1867C12.2 10.0133 12.24 9.86667 12.24 9.73333C12.24 9.62667 12.2 9.46667 12.1333 9.30667C12.04 9.09333 11.8933 8.85333 11.7067 8.6L8.61332 4.22667C8.47999 4.04 8.31999 3.90667 8.11999 3.81333C7.90666 3.72 7.67999 3.66667 7.45332 3.66667ZM18.6 20.0133L18.3867 20.92L18.7467 19.9867C18.68 19.9733 18.6267 19.9867 18.6 20.0133Z" fill="#605D62"/>
  </svg>
  