<svg width="18" height="18" viewBox="0 0 18 18" fill="none" xmlns="http://www.w3.org/2000/svg">
  <path d="M4.15499 14.64C3.69749 14.64 3.26999 14.4825 2.96249 14.19C2.57249 13.8225 2.38499 13.2675 2.45249 12.6675L2.72999 10.2375C2.78249 9.78 3.05999 9.1725 3.38249 8.8425L9.53999 2.325C11.0775 0.6975 12.6825 0.6525 14.31 2.19C15.9375 3.7275 15.9825 5.3325 14.445 6.96L8.28749 13.4775C7.97249 13.815 7.38749 14.13 6.92999 14.205L4.51499 14.6175C4.38749 14.625 4.27499 14.64 4.15499 14.64ZM11.9475 2.1825C11.37 2.1825 10.8675 2.5425 10.3575 3.0825L4.19999 9.6075C4.04999 9.765 3.87749 10.14 3.84749 10.3575L3.56999 12.7875C3.53999 13.035 3.59999 13.2375 3.73499 13.365C3.86999 13.4925 4.07249 13.5375 4.31999 13.5L6.73499 13.0875C6.95249 13.05 7.31249 12.855 7.46249 12.6975L13.62 6.18C14.55 5.19 14.8875 4.275 13.53 3C12.93 2.4225 12.4125 2.1825 11.9475 2.1825Z" fill="#1D71F2"/>
  <path d="M13.005 8.2125C12.99 8.2125 12.9675 8.2125 12.9525 8.2125C10.6125 7.98 8.72996 6.2025 8.36996 3.8775C8.32496 3.57 8.53496 3.285 8.84246 3.2325C9.14996 3.1875 9.43496 3.3975 9.48746 3.705C9.77246 5.52 11.2425 6.915 13.0725 7.095C13.38 7.125 13.605 7.4025 13.575 7.71C13.5375 7.995 13.29 8.2125 13.005 8.2125Z" fill="#1D71F2"/>
  <path d="M15.75 17.0625H2.25C1.9425 17.0625 1.6875 16.8075 1.6875 16.5C1.6875 16.1925 1.9425 15.9375 2.25 15.9375H15.75C16.0575 15.9375 16.3125 16.1925 16.3125 16.5C16.3125 16.8075 16.0575 17.0625 15.75 17.0625Z" fill="#1D71F2"/>
  </svg>
  