<svg width="30" height="30" viewBox="0 0 30 30" fill="none" xmlns="http://www.w3.org/2000/svg">
  <rect width="30" height="30" rx="15" fill="#AEAAAE"/>
  <path d="M18.9999 11C18.5933 11 18.2199 10.7667 18.0333 10.4067L17.5533 9.44C17.2466 8.83333 16.4466 8.33333 15.7666 8.33333H14.2399C13.5533 8.33333 12.7533 8.83333 12.4466 9.44L11.9666 10.4067C11.7799 10.7667 11.4066 11 10.9999 11C9.55328 11 8.40662 12.22 8.49995 13.66L8.84662 19.1667C8.92662 20.54 9.66662 21.6667 11.5066 21.6667H18.4933C20.3333 21.6667 21.0666 20.54 21.1533 19.1667L21.4999 13.66C21.5933 12.22 20.4466 11 18.9999 11ZM13.9999 11.8333H15.9999C16.2733 11.8333 16.4999 12.06 16.4999 12.3333C16.4999 12.6067 16.2733 12.8333 15.9999 12.8333H13.9999C13.7266 12.8333 13.4999 12.6067 13.4999 12.3333C13.4999 12.06 13.7266 11.8333 13.9999 11.8333ZM14.9999 19.08C13.7599 19.08 12.7466 18.0733 12.7466 16.8267C12.7466 15.58 13.7533 14.5733 14.9999 14.5733C16.2466 14.5733 17.2533 15.58 17.2533 16.8267C17.2533 18.0733 16.2399 19.08 14.9999 19.08Z" fill="white"/>
  </svg>
  