<svg width="33" height="32" viewBox="0 0 33 32" fill="none" xmlns="http://www.w3.org/2000/svg">
  <path d="M23.1667 28.3333H9.83335C4.96669 28.3333 2.16669 25.5333 2.16669 20.6667V11.3333C2.16669 6.46667 4.96669 3.66667 9.83335 3.66667H23.1667C28.0334 3.66667 30.8334 6.46667 30.8334 11.3333V20.6667C30.8334 25.5333 28.0334 28.3333 23.1667 28.3333ZM9.83335 5.66667C6.02002 5.66667 4.16669 7.52 4.16669 11.3333V20.6667C4.16669 24.48 6.02002 26.3333 9.83335 26.3333H23.1667C26.98 26.3333 28.8334 24.48 28.8334 20.6667V11.3333C28.8334 7.52 26.98 5.66667 23.1667 5.66667H9.83335Z" fill="#605D62"/>
  <path d="M16.4997 17.16C15.3797 17.16 14.2464 16.8133 13.3797 16.1066L9.20635 12.7733C8.77968 12.4266 8.69969 11.8 9.04636 11.3733C9.39302 10.9466 10.0197 10.8666 10.4464 11.2133L14.6197 14.5466C15.633 15.36 17.353 15.36 18.3663 14.5466L22.5397 11.2133C22.9663 10.8666 23.6064 10.9333 23.9397 11.3733C24.2864 11.8 24.2197 12.44 23.7797 12.7733L19.6064 16.1066C18.753 16.8133 17.6197 17.16 16.4997 17.16Z" fill="#605D62"/>
  </svg>
  