<svg width="24" height="24" viewBox="0 0 28 28" fill="none" xmlns="http://www.w3.org/2000/svg">
  <path d="M24.5 6.125H3.5C3.02167 6.125 2.625 5.72833 2.625 5.25C2.625 4.77167 3.02167 4.375 3.5 4.375H24.5C24.9783 4.375 25.375 4.77167 25.375 5.25C25.375 5.72833 24.9783 6.125 24.5 6.125Z" fill="#1D71F2"/>
  <path d="M14.5483 11.9585H3.5C3.02167 11.9585 2.625 11.5618 2.625 11.0835C2.625 10.6052 3.02167 10.2085 3.5 10.2085H14.5483C15.0267 10.2085 15.4233 10.6052 15.4233 11.0835C15.4233 11.5618 15.0383 11.9585 14.5483 11.9585Z" fill="#1D71F2"/>
  <path d="M24.5 17.7915H3.5C3.02167 17.7915 2.625 17.3948 2.625 16.9165C2.625 16.4382 3.02167 16.0415 3.5 16.0415H24.5C24.9783 16.0415 25.375 16.4382 25.375 16.9165C25.375 17.3948 24.9783 17.7915 24.5 17.7915Z" fill="#1D71F2"/>
  <path d="M14.5483 23.625H3.5C3.02167 23.625 2.625 23.2283 2.625 22.75C2.625 22.2717 3.02167 21.875 3.5 21.875H14.5483C15.0267 21.875 15.4233 22.2717 15.4233 22.75C15.4233 23.2283 15.0383 23.625 14.5483 23.625Z" fill="#1D71F2"/>
  </svg>
  