<svg width="24" height="24" viewBox="0 0 28 28" fill="none" xmlns="http://www.w3.org/2000/svg">
  <path d="M24.5 6.125H3.5C3.02167 6.125 2.625 5.72833 2.625 5.25C2.625 4.77167 3.02167 4.375 3.5 4.375H24.5C24.9783 4.375 25.375 4.77167 25.375 5.25C25.375 5.72833 24.9783 6.125 24.5 6.125Z" fill="#1D71F2"/>
  <path d="M24.5 11.9585H13.4517C12.9733 11.9585 12.5767 11.5618 12.5767 11.0835C12.5767 10.6052 12.9733 10.2085 13.4517 10.2085H24.5C24.9783 10.2085 25.375 10.6052 25.375 11.0835C25.375 11.5618 24.9783 11.9585 24.5 11.9585Z" fill="#1D71F2"/>
  <path d="M24.5 17.7915H3.5C3.02167 17.7915 2.625 17.3948 2.625 16.9165C2.625 16.4382 3.02167 16.0415 3.5 16.0415H24.5C24.9783 16.0415 25.375 16.4382 25.375 16.9165C25.375 17.3948 24.9783 17.7915 24.5 17.7915Z" fill="#1D71F2"/>
  <path d="M24.5 23.625H13.4517C12.9733 23.625 12.5767 23.2283 12.5767 22.75C12.5767 22.2717 12.9733 21.875 13.4517 21.875H24.5C24.9783 21.875 25.375 22.2717 25.375 22.75C25.375 23.2283 24.9783 23.625 24.5 23.625Z" fill="#1D71F2"/>
  </svg>
  