<svg width="20" height="20" viewBox="0 0 20 20" fill="none" xmlns="http://www.w3.org/2000/svg">
  <path fill-rule="evenodd" clip-rule="evenodd" d="M14.6418 9.35729C14.6418 9.71635 15.1045 9.89184 15.3665 9.6321L19.8837 5.15286C20.0388 4.99906 20.0388 4.75703 19.8837 4.60323L15.3665 0.123994C15.1045 -0.135739 14.6418 0.0397422 14.6418 0.39881V2.48999C14.6418 2.70981 14.4535 2.888 14.2213 2.888H1.39611C1.16387 2.888 0.97561 3.0662 0.97561 3.28601V6.47009C0.97561 6.6899 1.16387 6.86809 1.39611 6.86809H14.2213C14.4535 6.86809 14.6418 7.04629 14.6418 7.2661V9.35729ZM0.116328 14.3593C-0.0387762 14.5131 -0.0387761 14.7552 0.116328 14.909L4.63355 19.3882C4.89548 19.6479 5.35822 19.4725 5.35822 19.1134V17.0222C5.35822 16.8024 5.54648 16.6242 5.77871 16.6242H18.6039C18.8361 16.6242 19.0244 16.446 19.0244 16.2262V13.0421C19.0244 12.8223 18.8361 12.6441 18.6039 12.6441H5.77871C5.54648 12.6441 5.35822 12.4659 5.35822 12.2461V10.1549C5.35822 9.79584 4.89548 9.62036 4.63355 9.88009L0.116328 14.3593Z" fill="white"/>
  </svg>
  