<svg width="32" height="32" viewBox="0 0 32 32" fill="none" xmlns="http://www.w3.org/2000/svg">
  <path d="M21.3333 30.3333H10.6667C4.50667 30.3333 3.36001 27.4667 3.06667 24.68L2.06667 14C1.92001 12.6 1.88001 10.5333 3.26667 8.98667C4.46667 7.65334 6.45334 7.01334 9.33334 7.01334H22.6667C25.56 7.01334 27.5467 7.66667 28.7333 8.98667C30.12 10.5333 30.08 12.6 29.9333 14.0133L28.9333 24.6667C28.64 27.4667 27.4933 30.3333 21.3333 30.3333ZM9.33334 9C7.08001 9 5.53334 9.44 4.74667 10.32C4.09334 11.04 3.88001 12.1467 4.05334 13.8L5.05334 24.48C5.28001 26.5867 5.85334 28.3333 10.6667 28.3333H21.3333C26.1333 28.3333 26.72 26.5867 26.9467 24.4667L27.9467 13.8133C28.12 12.1467 27.9067 11.04 27.2533 10.32C26.4667 9.44 24.92 9 22.6667 9H9.33334Z" fill="#605D62"/>
  <path d="M21.3333 9C20.7867 9 20.3333 8.54666 20.3333 8V6.93333C20.3333 4.56 20.3333 3.66666 17.0667 3.66666H14.9333C11.6667 3.66666 11.6667 4.56 11.6667 6.93333V8C11.6667 8.54666 11.2133 9 10.6667 9C10.12 9 9.66666 8.54666 9.66666 8V6.93333C9.66666 4.58666 9.66666 1.66666 14.9333 1.66666H17.0667C22.3333 1.66666 22.3333 4.58666 22.3333 6.93333V8C22.3333 8.54666 21.88 9 21.3333 9Z" fill="#605D62"/>
  <path d="M16 22.3333C12.3333 22.3333 12.3333 20.0667 12.3333 18.7067V17.3333C12.3333 15.4533 12.7867 15 14.6667 15H17.3333C19.2133 15 19.6667 15.4533 19.6667 17.3333V18.6667C19.6667 20.0533 19.6667 22.3333 16 22.3333ZM14.3333 17C14.3333 17.1067 14.3333 17.2267 14.3333 17.3333V18.7067C14.3333 20.08 14.3333 20.3333 16 20.3333C17.6667 20.3333 17.6667 20.12 17.6667 18.6933V17.3333C17.6667 17.2267 17.6667 17.1067 17.6667 17C17.56 17 17.44 17 17.3333 17H14.6667C14.56 17 14.44 17 14.3333 17Z" fill="#605D62"/>
  <path d="M18.6667 19.6933C18.1733 19.6933 17.7333 19.32 17.68 18.8133C17.6133 18.2667 18 17.76 18.5467 17.6933C22.0667 17.2533 25.44 15.92 28.28 13.8533C28.72 13.52 29.3467 13.6267 29.68 14.08C30 14.52 29.9067 15.1467 29.4533 15.48C26.3333 17.7467 22.6533 19.2 18.7867 19.6933C18.7467 19.6933 18.7067 19.6933 18.6667 19.6933Z" fill="#787579"/>
  <path d="M13.3333 19.7067C13.2933 19.7067 13.2533 19.7067 13.2133 19.7067C9.55999 19.2933 5.99999 17.96 2.91999 15.8533C2.46665 15.5467 2.34665 14.92 2.65332 14.4667C2.95999 14.0133 3.58665 13.8933 4.03999 14.2C6.85332 16.12 10.0933 17.3333 13.4267 17.72C13.9733 17.7867 14.3733 18.28 14.3067 18.8267C14.2667 19.3333 13.84 19.7067 13.3333 19.7067Z" fill="#787579"/>
  </svg>
  