<svg width="20" height="20" viewBox="0 0 20 20" fill="none" xmlns="http://www.w3.org/2000/svg">
  <path d="M16.8417 6.51667L10.425 10.2333C10.1667 10.3833 9.84166 10.3833 9.575 10.2333L3.15833 6.51667C2.7 6.25 2.58333 5.625 2.93333 5.23333C3.175 4.95833 3.45 4.73333 3.74166 4.575L8.25833 2.075C9.225 1.53333 10.7917 1.53333 11.7583 2.075L16.275 4.575C16.5667 4.73333 16.8417 4.96667 17.0833 5.23333C17.4167 5.625 17.3 6.25 16.8417 6.51667Z" fill="#A5A9AD"/>
  <path d="M9.525 11.7833V17.4667C9.525 18.1 8.88334 18.5167 8.31667 18.2417C6.6 17.4 3.70834 15.825 3.70834 15.825C2.69167 15.25 1.85834 13.8 1.85834 12.6083V8.30833C1.85834 7.65 2.55 7.23333 3.11667 7.55833L9.10834 11.0333C9.35834 11.1917 9.525 11.475 9.525 11.7833Z" fill="#A5A9AD"/>
  <path d="M10.475 11.7833V17.4667C10.475 18.1 11.1167 18.5167 11.6833 18.2417C13.4 17.4 16.2917 15.825 16.2917 15.825C17.3083 15.25 18.1417 13.8 18.1417 12.6083V8.30833C18.1417 7.65 17.45 7.23333 16.8833 7.55833L10.8917 11.0333C10.6417 11.1917 10.475 11.475 10.475 11.7833Z" fill="#A5A9AD"/>
  </svg>
  