<svg width="30" height="30" viewBox="0 0 30 30" fill="none" xmlns="http://www.w3.org/2000/svg">
  <rect width="30" height="30" rx="15" fill="#AEAAAE"/>
  <path d="M21.0466 10.4867C19.9733 10.38 18.8999 10.3 17.8199 10.24V10.2333L17.6733 9.36668C17.5733 8.75334 17.4266 7.83334 15.8666 7.83334H14.1199C12.5666 7.83334 12.4199 8.71334 12.3133 9.36001L12.1733 10.2133C11.5533 10.2533 10.9333 10.2933 10.3133 10.3533L8.95328 10.4867C8.67328 10.5133 8.47328 10.76 8.49994 11.0333C8.52661 11.3067 8.76661 11.5067 9.04661 11.48L10.4066 11.3467C13.8999 11 17.4199 11.1333 20.9533 11.4867C20.9733 11.4867 20.9866 11.4867 21.0066 11.4867C21.2599 11.4867 21.4799 11.2933 21.5066 11.0333C21.5266 10.76 21.3266 10.5133 21.0466 10.4867Z" fill="white"/>
  <path d="M19.8202 12.4267C19.6602 12.26 19.4402 12.1667 19.2135 12.1667H10.7868C10.5602 12.1667 10.3335 12.26 10.1802 12.4267C10.0268 12.5933 9.94016 12.82 9.95349 13.0533L10.3668 19.8933C10.4402 20.9067 10.5335 22.1733 12.8602 22.1733H17.1402C19.4668 22.1733 19.5602 20.9133 19.6335 19.8933L20.0468 13.06C20.0602 12.82 19.9735 12.5933 19.8202 12.4267ZM16.1068 18.8333H13.8868C13.6135 18.8333 13.3868 18.6067 13.3868 18.3333C13.3868 18.06 13.6135 17.8333 13.8868 17.8333H16.1068C16.3802 17.8333 16.6068 18.06 16.6068 18.3333C16.6068 18.6067 16.3802 18.8333 16.1068 18.8333ZM16.6668 16.1667H13.3335C13.0602 16.1667 12.8335 15.94 12.8335 15.6667C12.8335 15.3933 13.0602 15.1667 13.3335 15.1667H16.6668C16.9402 15.1667 17.1668 15.3933 17.1668 15.6667C17.1668 15.94 16.9402 16.1667 16.6668 16.1667Z" fill="white"/>
  </svg>
  