<svg width="20" height="20" viewBox="0 0 20 20" fill="none" xmlns="http://www.w3.org/2000/svg">
  <path d="M18.3333 18.3333H1.66666C1.32499 18.3333 1.04166 18.05 1.04166 17.7083C1.04166 17.3667 1.32499 17.0833 1.66666 17.0833H18.3333C18.675 17.0833 18.9583 17.3667 18.9583 17.7083C18.9583 18.05 18.675 18.3333 18.3333 18.3333Z" fill="#A5A9AD"/>
  <path d="M8.125 3.33333V18.3333H11.875V3.33333C11.875 2.41666 11.5 1.66666 10.375 1.66666H9.625C8.5 1.66666 8.125 2.41666 8.125 3.33333Z" fill="#A5A9AD"/>
  <path d="M2.5 8.33333V18.3333H5.83333V8.33333C5.83333 7.41666 5.5 6.66666 4.5 6.66666H3.83333C2.83333 6.66666 2.5 7.41666 2.5 8.33333Z" fill="#A5A9AD"/>
  <path d="M14.1667 12.5V18.3333H17.5V12.5C17.5 11.5833 17.1667 10.8333 16.1667 10.8333H15.5C14.5 10.8333 14.1667 11.5833 14.1667 12.5Z" fill="#A5A9AD"/>
  </svg>
  