<svg width="20" height="20" viewBox="0 0 20 20" fill="none" xmlns="http://www.w3.org/2000/svg">
<path fill-rule="evenodd" clip-rule="evenodd" d="M14.8503 13.4575C17.294 10.319 17.0733 5.77833 14.1881 2.89315C11.0639 -0.231046 5.99859 -0.231045 2.8744 2.89315C-0.249799 6.01734 -0.249799 11.0827 2.8744 14.2069C5.75958 17.092 10.3002 17.3128 13.4387 14.869C13.4523 14.8843 13.4664 14.8993 13.481 14.914L17.7236 19.1566C18.1142 19.5471 18.7473 19.5471 19.1379 19.1566C19.5284 18.7661 19.5284 18.1329 19.1379 17.7424L14.8952 13.4998C14.8806 13.4851 14.8656 13.471 14.8503 13.4575ZM12.7739 4.30736C15.117 6.65051 15.117 10.4495 12.7739 12.7926C10.4307 15.1358 6.63175 15.1358 4.28861 12.7926C1.94546 10.4495 1.94546 6.65051 4.28861 4.30736C6.63175 1.96422 10.4307 1.96422 12.7739 4.30736Z" fill="#52575C"/>
</svg>
