<svg width="20" height="20" viewBox="0 0 20 20" fill="none" xmlns="http://www.w3.org/2000/svg">
  <path d="M6.03334 1.66666H4.45001C2.62501 1.66666 1.66667 2.625 1.66667 4.44166V6.025C1.66667 7.84166 2.62501 8.8 4.44167 8.8H6.02501C7.84167 8.8 8.80001 7.84166 8.80001 6.025V4.44166C8.80834 2.625 7.85001 1.66666 6.03334 1.66666Z" fill="white"/>
  <path d="M15.5583 1.66666H13.975C12.1583 1.66666 11.2 2.625 11.2 4.44166V6.025C11.2 7.84166 12.1583 8.8 13.975 8.8H15.5583C17.375 8.8 18.3333 7.84166 18.3333 6.025V4.44166C18.3333 2.625 17.375 1.66666 15.5583 1.66666Z" fill="white"/>
  <path d="M15.5583 11.1917H13.975C12.1583 11.1917 11.2 12.15 11.2 13.9667V15.55C11.2 17.3667 12.1583 18.325 13.975 18.325H15.5583C17.375 18.325 18.3333 17.3667 18.3333 15.55V13.9667C18.3333 12.15 17.375 11.1917 15.5583 11.1917Z" fill="white"/>
  <path d="M6.03334 11.1917H4.45001C2.62501 11.1917 1.66667 12.15 1.66667 13.9667V15.55C1.66667 17.375 2.62501 18.3333 4.44167 18.3333H6.02501C7.84167 18.3333 8.80001 17.375 8.80001 15.5583V13.975C8.80834 12.15 7.85001 11.1917 6.03334 11.1917Z" fill="white"/>
  </svg>
  