<svg width="24" height="25" viewBox="0 0 24 25" fill="none" xmlns="http://www.w3.org/2000/svg">
<path d="M14.7 23.25H9.30001C4.36001 23.25 2.26001 21.14 2.26001 16.21V11.72C2.26001 11.31 2.60001 10.97 3.01001 10.97C3.42001 10.97 3.76001 11.31 3.76001 11.72V16.21C3.76001 20.3 5.21001 21.75 9.30001 21.75H14.69C18.78 21.75 20.23 20.3 20.23 16.21V11.72C20.23 11.31 20.57 10.97 20.98 10.97C21.39 10.97 21.73 11.31 21.73 11.72V16.21C21.74 21.14 19.63 23.25 14.7 23.25Z" fill="#939094"/>
<path d="M12 13.25C10.9 13.25 9.9 12.82 9.19 12.03C8.48 11.24 8.15 10.21 8.26 9.11L8.93 2.43C8.97 2.05 9.29 1.75 9.68 1.75H14.35C14.74 1.75 15.06 2.04 15.1 2.43L15.77 9.11C15.88 10.21 15.55 11.24 14.84 12.03C14.1 12.82 13.1 13.25 12 13.25ZM10.35 3.25L9.75 9.26C9.68 9.93 9.88 10.56 10.3 11.02C11.15 11.96 12.85 11.96 13.7 11.02C14.12 10.55 14.32 9.92 14.25 9.26L13.65 3.25H10.35Z" fill="#939094"/>
<path d="M18.31 13.25C16.28 13.25 14.47 11.61 14.26 9.59L13.56 2.58C13.54 2.37 13.61 2.16 13.75 2C13.89 1.84 14.09 1.75 14.31 1.75H17.36C20.3 1.75 21.67 2.98 22.08 6L22.36 8.78C22.48 9.96 22.12 11.08 21.35 11.93C20.58 12.78 19.5 13.25 18.31 13.25ZM15.14 3.25L15.76 9.44C15.89 10.69 17.05 11.75 18.31 11.75C19.07 11.75 19.75 11.46 20.24 10.93C20.72 10.4 20.94 9.69 20.87 8.93L20.59 6.18C20.28 3.92 19.55 3.25 17.36 3.25H15.14V3.25Z" fill="#939094"/>
<path d="M5.64002 13.25C4.45002 13.25 3.37002 12.78 2.60002 11.93C1.83002 11.08 1.47002 9.96 1.59002 8.78L1.86002 6.03C2.28002 2.98 3.65002 1.75 6.59002 1.75H9.64002C9.85002 1.75 10.05 1.84 10.2 2C10.35 2.16 10.41 2.37 10.39 2.58L9.69002 9.59C9.48002 11.61 7.67002 13.25 5.64002 13.25ZM6.59002 3.25C4.40002 3.25 3.67002 3.91 3.35002 6.2L3.08002 8.93C3.00002 9.69 3.23002 10.4 3.71002 10.93C4.19002 11.46 4.87002 11.75 5.64002 11.75C6.90002 11.75 8.07002 10.69 8.19002 9.44L8.81002 3.25H6.59002V3.25Z" fill="#939094"/>
<path d="M14.5 23.25H9.5C9.09 23.25 8.75 22.91 8.75 22.5V20C8.75 17.9 9.9 16.75 12 16.75C14.1 16.75 15.25 17.9 15.25 20V22.5C15.25 22.91 14.91 23.25 14.5 23.25ZM10.25 21.75H13.75V20C13.75 18.74 13.26 18.25 12 18.25C10.74 18.25 10.25 18.74 10.25 20V21.75Z" fill="#939094"/>
</svg>
