<svg width="50" height="50" viewBox="0 0 50 50" fill="none" xmlns="http://www.w3.org/2000/svg">
  <path d="M35.9166 47.3958H14.0832C8.24991 47.3958 4.54158 43.9167 4.20825 38.1042L3.12491 20.9167C2.95825 18.3125 3.85408 15.8125 5.64575 13.9167C7.41658 12.0208 9.91658 10.9375 12.4999 10.9375C13.1666 10.9375 13.8124 10.5417 14.1249 9.91666L15.6249 6.93749C16.8541 4.49999 19.9374 2.60416 22.6249 2.60416H27.3957C30.0832 2.60416 33.1457 4.49999 34.3749 6.91666L35.8749 9.95832C36.1874 10.5417 36.8124 10.9375 37.4999 10.9375C40.0832 10.9375 42.5832 12.0208 44.3541 13.9167C46.1457 15.8333 47.0416 18.3125 46.8749 20.9167L45.7916 38.125C45.4166 44.0208 41.8124 47.3958 35.9166 47.3958ZM22.6249 5.72916C21.0832 5.72916 19.1249 6.93749 18.4166 8.33332L16.9166 11.3333C16.0416 13.0208 14.3541 14.0625 12.4999 14.0625C10.7499 14.0625 9.12491 14.7708 7.91658 16.0417C6.72908 17.3125 6.12491 18.9792 6.24991 20.7083L7.33325 37.9167C7.58325 42.125 9.85408 44.2708 14.0832 44.2708H35.9166C40.1249 44.2708 42.3957 42.125 42.6666 37.9167L43.7499 20.7083C43.8541 18.9792 43.2707 17.3125 42.0832 16.0417C40.8749 14.7708 39.2499 14.0625 37.4999 14.0625C35.6457 14.0625 33.9582 13.0208 33.0832 11.375L31.5624 8.33332C30.8749 6.95832 28.9166 5.74999 27.3749 5.74999H22.6249V5.72916Z" fill="#1D71F2"/>
  <path d="M28.125 18.2292H21.875C21.0208 18.2292 20.3125 17.5208 20.3125 16.6667C20.3125 15.8125 21.0208 15.1042 21.875 15.1042H28.125C28.9792 15.1042 29.6875 15.8125 29.6875 16.6667C29.6875 17.5208 28.9792 18.2292 28.125 18.2292Z" fill="#1D71F2"/>
  <path d="M25.0001 39.0625C20.3959 39.0625 16.6667 35.3333 16.6667 30.7292C16.6667 26.125 20.3959 22.3958 25.0001 22.3958C29.6042 22.3958 33.3334 26.125 33.3334 30.7292C33.3334 35.3333 29.6042 39.0625 25.0001 39.0625ZM25.0001 25.5208C22.1251 25.5208 19.7917 27.8542 19.7917 30.7292C19.7917 33.6042 22.1251 35.9375 25.0001 35.9375C27.8751 35.9375 30.2084 33.6042 30.2084 30.7292C30.2084 27.8542 27.8751 25.5208 25.0001 25.5208Z" fill="#1D71F2"/>
  </svg>
  