<svg width="32" height="32" viewBox="0 0 32 32" fill="none" xmlns="http://www.w3.org/2000/svg">
  <path opacity="0.4" d="M16 29.3467C23.3638 29.3467 29.3333 23.3771 29.3333 16.0133C29.3333 8.64953 23.3638 2.67999 16 2.67999C8.63616 2.67999 2.66663 8.64953 2.66663 16.0133C2.66663 23.3771 8.63616 29.3467 16 29.3467Z" fill="#1D71F2"/>
  <path d="M16 9.25333C13.24 9.25333 11 11.4933 11 14.2533C11 16.96 13.12 19.16 15.9333 19.24C15.9733 19.24 16.0267 19.24 16.0533 19.24C16.08 19.24 16.12 19.24 16.1467 19.24C16.16 19.24 16.1733 19.24 16.1733 19.24C18.8667 19.1467 20.9867 16.96 21 14.2533C21 11.4933 18.76 9.25333 16 9.25333Z" fill="#1D71F2"/>
  <path d="M25.04 25.8133C22.6666 28 19.4933 29.3467 16 29.3467C12.5066 29.3467 9.33329 28 6.95996 25.8133C7.27996 24.6 8.14663 23.4933 9.41329 22.64C13.0533 20.2133 18.9733 20.2133 22.5866 22.64C23.8666 23.4933 24.72 24.6 25.04 25.8133Z" fill="#1D71F2"/>
  </svg>
  