<svg width="124" height="124" viewBox="0 0 124 124" fill="none" xmlns="http://www.w3.org/2000/svg">
  <path d="M61.9997 117.542C31.3613 117.542 6.45801 92.6384 6.45801 62C6.45801 31.3617 31.3613 6.45837 61.9997 6.45837C92.638 6.45837 117.541 31.3617 117.541 62C117.541 92.6384 92.638 117.542 61.9997 117.542ZM61.9997 14.2084C35.6497 14.2084 14.208 35.65 14.208 62C14.208 88.35 35.6497 109.792 61.9997 109.792C88.3497 109.792 109.791 88.35 109.791 62C109.791 35.65 88.3497 14.2084 61.9997 14.2084Z" fill="#DC3545"/>
  <path d="M62 71.0417C59.8817 71.0417 58.125 69.285 58.125 67.1667V41.3334C58.125 39.215 59.8817 37.4584 62 37.4584C64.1183 37.4584 65.875 39.215 65.875 41.3334V67.1667C65.875 69.285 64.1183 71.0417 62 71.0417Z" fill="#DC3545"/>
  <path d="M61.9997 87.8334C61.328 87.8334 60.6563 87.6784 60.0363 87.42C59.4163 87.1617 58.848 86.8 58.3313 86.335C57.8663 85.8184 57.5047 85.3017 57.2463 84.63C56.988 84.01 56.833 83.3384 56.833 82.6667C56.833 81.995 56.988 81.3234 57.2463 80.7034C57.5047 80.0834 57.8663 79.515 58.3313 78.9984C58.848 78.5334 59.4163 78.1717 60.0363 77.9134C61.2763 77.3967 62.723 77.3967 63.963 77.9134C64.583 78.1717 65.1513 78.5334 65.668 78.9984C66.133 79.515 66.4947 80.0834 66.753 80.7034C67.0113 81.3234 67.1663 81.995 67.1663 82.6667C67.1663 83.3384 67.0113 84.01 66.753 84.63C66.4947 85.3017 66.133 85.8184 65.668 86.335C65.1513 86.8 64.583 87.1617 63.963 87.42C63.343 87.6784 62.6713 87.8334 61.9997 87.8334Z" fill="#DC3545"/>
  </svg>
  